<svg version="1.0" xmlns="http://www.w3.org/2000/svg"
 width="1280.000000pt" height="1092.000000pt" viewBox="0 0 1280.000000 1092.000000"
 preserveAspectRatio="xMidYMid meet">
<g transform="translate(0.000000,1092.000000) scale(0.100000,-0.100000)"
fill="#ffff00" stroke="none">
<path d="M3465 10910 c-972 -56 -1772 -326 -2291 -773 -264 -227 -405 -419
-564 -767 -324 -706 -514 -1420 -587 -2200 -21 -231 -24 -843 -5 -1060 71
-791 241 -1472 534 -2140 808 -1838 2403 -3214 4333 -3739 1150 -313 2404
-306 3540 20 1334 383 2488 1154 3369 2253 272 339 525 736 742 1164 146 288
193 421 236 660 31 180 32 523 0 727 -129 834 -629 1724 -1447 2575 -945 983
-2160 1799 -3620 2427 -964 415 -2030 706 -2985 814 -356 40 -930 58 -1255 39z
m332 -946 l82 -7 -6 -46 c-10 -87 15 -122 258 -361 120 -118 229 -233 241
-256 13 -22 300 -348 639 -725 773 -857 1369 -1535 1369 -1554 0 -3 -8 -5 -18
-5 -20 0 -840 820 -1730 1730 -299 305 -696 704 -882 885 -340 330 -340 330
-308 336 46 9 256 10 355 3z m1419 -139 c270 -47 515 -103 457 -105 -7 0 -24
-20 -38 -43 -19 -34 -25 -58 -25 -104 0 -62 7 -85 65 -208 18 -38 99 -230 178
-425 80 -195 187 -454 237 -575 208 -503 540 -1337 540 -1358 0 -2 -13 -2 -28
1 -24 3 -39 23 -114 155 -168 296 -306 566 -713 1392 -454 924 -575 1150 -660
1236 -32 33 -54 59 -49 59 5 0 73 -11 150 -25z m-2856 -115 c0 -49 18 -96 62
-156 27 -38 118 -103 518 -369 267 -177 834 -549 1260 -825 1419 -921 2087
-1367 2072 -1382 -15 -15 -523 284 -2027 1190 -1118 674 -1662 997 -2052 1221
-128 74 -233 137 -233 142 0 17 357 217 393 219 4 0 7 -18 7 -40z m4632 -376
l76 -28 -49 -54 c-27 -30 -57 -68 -65 -84 -22 -43 -41 -219 -58 -553 -19 -353
-22 -390 -46 -630 -11 -104 -29 -287 -40 -405 -21 -221 -57 -537 -66 -578 -4
-20 -9 -23 -32 -17 -15 4 -28 7 -29 8 -3 4 -23 199 -33 327 -6 69 -15 418 -20
775 -5 358 -14 718 -20 800 -16 239 -50 503 -75 581 -6 20 11 15 187 -46 106
-37 227 -81 270 -96z m1213 -582 c116 -63 225 -123 244 -135 l35 -21 -72 -12
c-132 -22 -258 -99 -337 -205 -431 -577 -879 -1129 -1122 -1381 l-74 -77 -40
15 c-21 9 -39 22 -39 30 0 49 180 415 327 664 44 74 139 243 213 375 131 236
232 402 330 540 97 136 115 291 54 449 -8 21 84 -26 481 -242z m-6690 -91 c16
-29 54 -76 85 -104 95 -89 202 -127 351 -127 61 0 103 -13 451 -136 210 -75
655 -232 988 -349 1286 -453 2054 -728 2628 -942 202 -75 203 -76 197 -102 -4
-14 -8 -27 -10 -29 -11 -11 -756 196 -1435 398 -168 50 -453 133 -635 185
-181 51 -604 172 -940 268 -617 177 -1076 304 -1506 417 l-236 62 -12 102
c-19 178 -23 318 -11 410 6 49 14 94 17 99 3 5 14 -15 23 -45 9 -30 30 -78 45
-107z m8203 -863 c144 -107 374 -291 430 -342 8 -8 -15 -7 -78 3 -90 14 -91
14 -238 -18 -284 -63 -683 -162 -1382 -345 -558 -145 -1118 -284 -1336 -331
-14 -3 -31 6 -54 30 l-33 34 94 47 c185 93 399 178 884 352 320 115 498 185
660 259 72 33 171 72 220 88 375 114 609 236 640 335 3 11 9 20 12 20 3 0 84
-59 181 -132z m-7653 -643 c74 -16 184 -18 250 -7 22 4 120 0 220 -10 408 -40
738 -70 1240 -113 1003 -86 1791 -156 2119 -190 285 -29 332 -36 343 -52 13
-16 11 -19 -14 -24 -44 -10 -553 -9 -842 1 -145 5 -424 17 -620 25 -196 8
-576 19 -846 25 -269 5 -715 14 -990 20 -275 6 -579 12 -675 13 l-174 2 -68
95 c-61 84 -208 314 -208 324 0 2 44 -19 98 -46 55 -28 127 -55 167 -63z
m5390 -485 c105 -6 332 -24 506 -40 175 -17 447 -37 605 -45 159 -8 537 -32
839 -54 608 -44 985 -66 1415 -84 l284 -12 64 -90 c104 -147 302 -469 302
-491 0 -2 -28 12 -62 31 -98 53 -204 84 -325 95 -59 5 -214 27 -343 50 -335
58 -691 113 -1535 240 -1032 155 -1651 253 -1953 310 -57 11 -104 20 -105 20
-1 0 -2 18 -2 40 l0 40 60 0 c33 0 146 -5 250 -10z m-1075 -25 c7 -9 10 -18 7
-21 -14 -14 -565 -209 -1027 -364 -526 -176 -885 -289 -1300 -410 -539 -157
-490 -140 -524 -187 -16 -23 -39 -71 -50 -106 l-21 -64 -145 119 c-185 152
-371 311 -367 314 1 2 23 -2 47 -7 25 -6 92 -9 150 -6 126 6 390 66 1482 338
394 98 815 201 935 230 186 43 775 176 794 178 4 1 12 -6 19 -14z m114 -64
c34 -16 81 -35 104 -42 23 -6 42 -14 42 -16 0 -30 -113 -292 -243 -563 -35
-74 -81 -182 -102 -240 -52 -144 -121 -288 -281 -587 -239 -445 -313 -645
-331 -892 -5 -73 -3 -88 11 -100 46 -39 -3 -21 -181 65 -241 116 -772 401
-773 415 0 4 15 10 33 13 51 10 179 87 270 164 98 82 223 224 338 382 45 63
104 142 129 175 54 69 205 285 440 630 261 382 443 625 469 625 8 0 42 -13 75
-29z m318 -97 c22 -14 82 -157 146 -351 39 -117 76 -222 82 -233 10 -18 94
-262 360 -1045 231 -679 502 -1372 557 -1423 14 -13 24 -24 22 -26 -6 -5 -379
70 -524 105 -155 37 -372 94 -437 115 l-47 15 24 35 c52 76 68 140 73 279 4
143 -5 196 -88 515 -22 85 -45 196 -51 245 -32 273 -45 361 -99 690 -72 437
-86 540 -105 754 -16 181 -19 323 -7 335 7 8 77 0 94 -10z m398 -86 c124 -59
159 -86 475 -363 185 -162 323 -274 415 -336 36 -23 175 -133 310 -244 813
-666 1439 -1171 1788 -1443 290 -227 683 -522 696 -523 37 -3 -255 -65 -479
-103 -197 -32 -575 -78 -575 -69 0 2 8 15 17 30 24 36 21 109 -6 162 -16 30
-168 189 -460 480 -882 879 -2021 2040 -2345 2391 -89 96 -95 105 -74 111 24
6 50 -4 238 -93z m385 -91 c544 -210 831 -323 1964 -777 1123 -449 1468 -585
1946 -765 165 -63 308 -117 317 -120 13 -5 16 -15 12 -38 -13 -82 -49 -220
-77 -297 l-30 -84 -18 52 c-24 70 -70 135 -132 183 -65 52 -75 57 -362 179
-659 280 -792 338 -935 407 -149 72 -338 156 -1520 676 -773 340 -1418 633
-1459 662 -54 38 -88 67 -71 62 8 -3 173 -66 365 -140z"/>
</g>
</svg>
