<svg version="1.0" xmlns="http://www.w3.org/2000/svg"
 width="1243.000000pt" height="1280.000000pt" viewBox="0 0 1243.000000 1280.000000"
 preserveAspectRatio="xMidYMid meet">
<g transform="translate(0.000000,1280.000000) scale(0.100000,-0.100000)"
fill="#ff7700" stroke="none">
<path d="M4505 12794 c-785 -59 -1398 -263 -1949 -649 -418 -292 -804 -697
-1247 -1310 -210 -290 -632 -907 -756 -1105 -166 -266 -371 -655 -446 -845
-41 -105 -108 -295 -103 -295 1 0 155 121 340 269 l338 268 441 142 c1255 401
1243 397 1927 701 310 138 520 226 505 211 -6 -5 -55 -42 -110 -83 -340 -253
-653 -552 -900 -858 -538 -671 -962 -1709 -1124 -2755 -57 -366 -75 -642 -68
-1039 9 -506 64 -862 206 -1336 457 -1515 1609 -2924 2916 -3565 701 -344
1724 -564 2515 -542 548 16 1193 133 1744 317 329 110 722 285 1001 444 129
74 420 269 510 341 549 441 1110 1154 1578 2006 219 399 349 701 442 1025 269
937 207 2058 -176 3181 -181 530 -463 1096 -737 1480 -304 425 -755 848 -1207
1131 l-80 50 -125 -20 c-174 -28 -340 -17 -340 23 0 6 29 38 64 72 64 62 83
98 72 135 -8 24 -215 139 -552 307 l-262 130 164 302 163 303 -14 48 c-31 104
-142 235 -239 282 -106 51 -338 64 -463 25 l-52 -16 -187 -312 c-103 -171
-188 -313 -189 -315 -2 -2 -47 10 -102 27 -77 23 -122 44 -199 94 -54 36 -182
113 -284 171 -102 59 -219 133 -260 164 -41 31 -259 239 -485 462 -556 551
-632 614 -850 720 -173 84 -449 156 -755 195 -119 16 -548 28 -665 19z"/>
</g>
</svg>
